<svg width="32" height="32" viewBox="0 0 32 32" fill="none" xmlns="http://www.w3.org/2000/svg">
<path d="M16 22.6665C16.3778 22.6665 16.6944 22.5387 16.95 22.2832C17.2055 22.0276 17.3333 21.7109 17.3333 21.3332C17.3333 20.9554 17.2055 20.6387 16.95 20.3832C16.6944 20.1276 16.3778 19.9998 16 19.9998C15.6222 19.9998 15.3055 20.1276 15.05 20.3832C14.7944 20.6387 14.6667 20.9554 14.6667 21.3332C14.6667 21.7109 14.7944 22.0276 15.05 22.2832C15.3055 22.5387 15.6222 22.6665 16 22.6665ZM14.6667 17.3332H17.3333V9.33317H14.6667V17.3332ZM16 29.3332C14.1555 29.3332 12.4222 28.9832 10.8 28.2832C9.17777 27.5832 7.76666 26.6332 6.56666 25.4332C5.36666 24.2332 4.41666 22.8221 3.71666 21.1998C3.01666 19.5776 2.66666 17.8443 2.66666 15.9998C2.66666 14.1554 3.01666 12.4221 3.71666 10.7998C4.41666 9.17762 5.36666 7.7665 6.56666 6.5665C7.76666 5.3665 9.17777 4.4165 10.8 3.7165C12.4222 3.0165 14.1555 2.6665 16 2.6665C17.8444 2.6665 19.5778 3.0165 21.2 3.7165C22.8222 4.4165 24.2333 5.3665 25.4333 6.5665C26.6333 7.7665 27.5833 9.17762 28.2833 10.7998C28.9833 12.4221 29.3333 14.1554 29.3333 15.9998C29.3333 17.8443 28.9833 19.5776 28.2833 21.1998C27.5833 22.8221 26.6333 24.2332 25.4333 25.4332C24.2333 26.6332 22.8222 27.5832 21.2 28.2832C19.5778 28.9832 17.8444 29.3332 16 29.3332Z" fill="currentColor"/>
</svg>
